# xmcd CD database file
#
# Track frame offsets:
#	150
#	9878
#	26940
#	46160
#	69465
#	97178
#	116573
#	142235
#	164343
#	192618
#	211923
#	227850
#	252890
#	279635
#
# Disc length: 4081 seconds
#
# Revision: 0
# Processed by: cddbd v1.5.1PL0 Copyright (c) Steve Scherf et al.
# Submitted via: CDex 1.51
#
DISCID=d00fef0e
DTITLE=聖飢魔II - The Live Black Mass B. D. 3 メフィストフェレスの陰謀
DYEAR=2005
DGENRE=Rock
TTITLE0=聖飢魔II ミサ曲 第II番「創世紀」
TTITLE1=地獄の皇太子は二度死ぬ
TTITLE2=1999 Secret Object
TTITLE3=Paint Me Black
TTITLE4=メフィストフェレスの肖像
TTITLE5=The Monsters' Rhythm Battle
TTITLE6=器楽狂想曲「死の舞踏」〜メフィストフェレスの肖像
TTITLE7=Who Kills Demon? "誰が悪魔を亡きものにするのか"
TTITLE8=悪魔のメリークリスマス "青春編"
TTITLE9=Great Devotion
TTITLE10=地獄の皇太子
TTITLE11=Holy Blood "戦いの血統"
TTITLE12=Winner!
TTITLE13=Fire After Fire
EXTD=YEAR: 2005
EXTT0=
EXTT1=
EXTT2=
EXTT3=
EXTT4=
EXTT5=
EXTT6=
EXTT7=
EXTT8=
EXTT9=
EXTT10=
EXTT11=
EXTT12=
EXTT13=
PLAYORDER=
